<svg xmlns="http://www.w3.org/2000/svg" xml:space="preserve" width="360.056px" height="223.254px" x="0px" y="0px" viewBox="0 0 360.056 223.254"><path fill="#F15A28" d="M302.952 111.625c0 61.648-49.973 111.629-111.625 111.629-61.65 0-111.624-49.98-111.624-111.629C79.704 49.977 129.677 0 191.328 0s111.624 49.977 111.624 111.625z"/><circle cx="191.331" cy="111.65" r="81.567" fill="none"/><path fill="none" d="M232.907 29.337c45.453 22.955 63.693 78.415 40.738 123.87-22.957 45.455-78.418 63.695-123.874 40.742-45.455-22.957-63.693-78.414-40.738-123.875 22.956-45.453 78.415-63.695 123.874-40.737z"/><path d="M296.065 111.625c0 57.838-46.889 104.73-104.731 104.73-57.84 0-104.73-46.893-104.73-104.73 0-57.843 46.891-104.733 104.73-104.733 57.843 0 104.731 46.89 104.731 104.733z"/><path fill="#FFF" d="M259.278 115.955c-2.389 37.506-34.732 65.98-72.241 63.594-37.512-2.391-65.984-34.734-63.595-72.242 2.389-37.512 34.728-65.983 72.242-63.594 37.512 2.386 65.981 34.729 63.594 72.242z"/><g fill="#F9A983"><path d="M137.92 149.91s-.158 1.229-.217 2.066c.313.408.615.799.926 1.184-.093-.467-.407-2.252-.182-2.646l-.527-.604zM140.354 152.055s-.223 1.367-.152 3.072c.396.467.799.91 1.213 1.367-.331-1.117-.301-2.334-.414-3.57l-.647-.869zM144.825 156.254l-1.447-1.242s.244 2.596.673 3.336c.048.482.022.762.149 1.078.602.588 1.197 1.16 1.805 1.723-.189-.486-.578-1.518-.396-2.092-.801-.916-.73-1.95-.784-2.803zM149.028 159.125l-1.488-1.207c-.188.344.186 2.865.84 4.006-.074.6.094 1.094.232 1.498.576.482 1.137.93 1.714 1.4-.073-.232-.476-1.477-.353-2.273-.853-.963-.951-2.358-.945-3.424zM153.235 166.941c-.254-.564-1.078-1.211-.735-1.961-.616-.895-.965-2.916-.718-4.287l1.447 1.395c-.032 1.031.037 2.707.836 3.793-.365.521 1.191 2.271 1.35 2.531l-2.18-1.471zM157.851 169.223c-.263-.58-.079-.602-.206-1.17-.59-.895-1.35-2.861-1.432-4.369l1.996.768c-.006 1.012.359 2.506 1.158 3.602-.357.529.637 2.23.773 2.486l-2.289-1.317zM166.002 172.973c-.203-.762.221-1.334.535-2.092-1.063-1.195-2.814-2.828-3.563-5.023l-2.17-.66c.941 2.406 2.469 4.654 3.488 5.631-.258.555-.305 1.49-.305 1.49l2.015.654zM172.522 174.316c-.189-.775.418-1.449.734-2.203-1.251-.775-3.133-2.99-4.309-5.674l-2.428-.281c2.025 3.928 3.451 5.178 4.73 5.998-.428.82-.472 1.66-.472 1.66l1.745.5zM179.276 174.707c-.041-1.123.535-1.367.857-2.105-1.247-.779-3.711-2.42-4.893-5.117l-2.415-.268c2.454 3.846 4.102 5.785 5.179 5.516-.441.799-.693 1.926-.693 1.926l1.965.048zM185.475 174.836c.086-.877.972-1.916 1.278-2.676-1.267-.775-3.233-1.539-4.382-4.242l-2.646.006c1.93 3.16 3.818 4.799 4.916 4.529-.699.959-1.203 2.701-1.203 2.701l2.037-.318zM191.71 174.449c-.034-1.109.967-1.93 1.269-2.666-1.229-.781-3.303-1.824-4.492-4.521l-2.527.121c1.852 3.043 3.795 4.738 4.869 4.457-.936 1.26-1.327 3.037-1.327 3.037l2.208-.428zM198.782 173.357c-.063-1.104.82-2.16 1.146-2.926-1.264-.762-3.016-1.568-4.195-4.262l-2.297.289c2.557 3.641 3.465 4.438 4.535 4.162-.775 1.242-1.396 3.318-1.396 3.318l2.207-.581zM205.325 172.25c-.055-1.141.826-2.186 1.143-2.945-1.246-.764-3.42-2.004-4.596-4.689l-2.248.51c2.459 3.521 3.789 4.9 4.883 4.627-.434.816-1.281 3.258-1.281 3.258l2.099-.761zM211.987 170.461c.271-1.293 1.309-2.775 1.645-3.527-1.266-.77-3.883-1.578-5.029-4.252l-1.895.621c2.461 3.451 3.211 3.77 4.826 3.998-.441.826-1.771 4.002-1.771 4.002l2.224-.842zM219.03 168.246c.373-2.254 1.211-3.588 1.463-4.33-1.25.086-3.266-1.184-4.594-3.785l-1.99.785c1.967 2.854 3.283 3.893 4.371 3.754-.43.861-1.361 4.463-1.361 4.463l2.111-.887zM225.999 165.117c-.125-.926 1.314-3.66 1.629-4.42-.172-.025-.58.066-1.031.002-.807-.111-2.34-.93-3.908-3.746l-1.799.889c1.982 3.135 3.375 3.678 3.842 3.76.383.117.861-.041 1.145-.119-1.008 1.283-1.803 4.637-1.803 4.637l1.925-1.003zM237.979 158.076c-.379-1.119-.5-2.664-.191-3.42-1.262-.754-2.162-2.379-2.32-4.988l-1.787 1.158c.398 3.053 1.344 4.148 2.389 4.713-.443.824.139 3.762.139 3.762l1.77-1.225zM232.187 161.717c-.025-1.123.48-3.188.83-3.914-1.17 0-1.977-.303-3.467-4.482l-1.789 1.061c2.475 4.51 2.83 4.189 3.471 3.98-.467.82-1.07 4.633-1.07 4.633l2.025-1.278zM242.577 154.184c-.387-1.244-.303-2.268.025-3.033-.707.145-.83-.736-.973-1.885-.113-1.043-.059-1.891-.127-3.121l-1.785 1.156c-.068 2.814.156 5.387 1.221 5.109-.447.822-.113 3.496-.113 3.496l1.752-1.722zM246.628 150.725c-.184-1.094-.1-2.076.281-2.869-.699-.887-.85-1.932-.635-4.871l-1.631 1.203c-.471 3.145.232 4.111.688 4.854-.492.85-.379 3.061-.379 3.061l1.676-1.378zM250.673 145.125c.566-2.787.078-4.137-.086-5.846l-1.623 1.533c.338 1.381.795 4.373.049 7.092l1.66-2.779zM253.778 135.781s-.092 2.09-.316 3.859c.367-.809.713-1.619 1.053-2.445-.012-.803-.053-1.771-.207-2.453l-.53 1.039z"/></g><g fill="#F9A983"><path d="M187.579 74.375c.461.818-.252 6.659-.754 8.625l-2.412-1.377s1.455-4.349 1.633-5.498c.186-1.149-.133-2.136-.758-2.658l2.291.908zM179.805 78.742l-1.848-.959c.986-3.442.955-4.942 1.004-5.881.025-.592-1.604-.953-1.501-.932 1.374-.424 6.519-3.473 7.697-4.256l2.074 1.017c-2.229 1.519-6.88 3.741-8.034 3.729-1.137-.015-.068.041-.068.041l1.035-.195c1.432 1.121-.263 6.44-.359 7.436zM172.948 75.876l-1.514-.627c.063-1.273.449-2.96 1.809-5.934l1.62.549c-1.572 3.425-2.062 5.448-1.915 6.012z"/><path d="m180.403 64.94-1.794-.69c-2.325 1.075-4.795 2.668-6.888 4.38l1.547.757c2.881-1.971 5.56-3.95 7.135-4.447z"/></g><path fill="#F9A983" d="m256.925 105.955-1.473.34c-.447-1.682-.701-4.193-2.51-5.949.76-1.658 1.281-3.006.336-5.051l1.34.047c.422 2.217.201 3.295-.461 4.811 1.205 1.29 2.576 3.138 2.768 5.802zM253.306 106.828l-1.748.25c-.449-1.713-1.047-4.393-2.857-6.158 1.516-1.604 1.467-3.486 1.164-5.359l1.602-.064c.422 2.215-.266 3.758-1.047 5.273 1.21 1.298 2.306 3.414 2.886 6.058zM256.685 100.035c1.818 1.771 1.559 3.48 2.006 5.188l.555-.133a63.303 63.303 0 0 0-.416-3.725 5.877 5.877 0 0 0-1.131-1.553c.357-1.219.396-2.066.336-2.99-.129-.648-.297-1.295-.432-1.939l-.945-.033c.441 1.451.364 3.703.027 5.185zM245.235 101.178c1.629 2.092 2.613 3.912 3.219 6.305l-1.76.055c-.465-1.697-1.564-4.5-3.371-6.27l1.912-.09z"/><path fill="#F9A983" d="M242.851 101.25c1.158-1.145 2.295-4.055 2.025-5.719l1.801.303c.059 2.883-.723 3.625-1.723 5.389l-2.103.027zM240.981 100.941c1.08 1.771 2.209 3.797 2.381 6.463l-1.74-.068c-.469-1.703-.867-4.742-2.504-6.516l1.863.121z"/><path fill="#F9A983" d="M238.882 100.83c1.174-1.146 2.379-4.244 2.098-5.895l1.801.301c.418 2.209-.854 3.957-2.041 5.703l-1.858-.109zM235.388 100.43c.947-.045 1.74 4.045 2 6.557l-1.947-.393c-.568-3.678.5-3.346-1.77-6.852l1.717.688z"/><path fill="#F9A983" d="M233.073 99.525c2.686-2.57 3.658-4.027 3.281-5.322l1.799.414c.455 1.65-2.141 4.092-3.377 5.602l-1.703-.694zM226.954 98.516c1.596-1.219 3.811-4.559 3.998-6.291l1.711.787c-.125 2.357-2.922 5.232-3.695 6.17l-2.014-.666z"/><g fill="#F9A983"><path d="M223.606 96c.963 1.434.967 4.738.715 7.467l-2.027-1c.42-1.879.529-5.207-.711-7.133l2.023.666zM229.37 99.264c.963 1.428.986 4.75.723 7.457l-2.035-1.006c.436-1.865.539-5.191-.682-7.127l1.994.676z"/><path d="M221.003 95.182c1.596-1.219 4.439-3.617 4.594-5.346l2.031 1c-.982 2.342-2.375 3.029-4.629 5.014l-1.996-.668z"/></g><g fill="#F9A983"><path d="M217.231 92.625c.877 1.584.551 5.094.012 7.938l-2.033-1.266c.635-1.93 1.07-5.438-.027-7.594l2.048.922z"/><path d="M214.591 91.48c1.793-1.131 5.039-3.383 5.371-5.186l2.031 1.264c-1.248 2.367-2.799 2.961-5.357 4.807l-2.045-.885z"/></g><g fill="#F9A983"><path d="M210.28 88.629c.766 1.648.18 5.105-.533 7.906l-1.965-1.402c.775-1.881 1.467-5.338.52-7.574l1.978 1.07z"/><path d="M207.716 87.287c1.887-.994 5.262-2.99 5.744-4.771l1.934 1.398c-1.436 2.271-3.021 2.758-5.699 4.441l-1.979-1.068z"/></g><g fill="#F9A983"><path d="M203.386 84.473c.77 1.652.189 5.111-.547 7.916l-1.938-1.404c.766-1.877 1.451-5.35.512-7.582l1.973 1.07z"/><path d="M200.833 83.146c1.887-.998 5.252-3.007 5.738-4.78l1.928 1.39c-1.432 2.279-3 2.75-5.697 4.441l-1.969-1.051z"/></g><g fill="#F9A983"><path d="M195.733 79.617c.758 1.637.188 5.11-.547 7.917l-1.945-1.412c.773-1.871 1.46-5.338.519-7.57l1.973 1.065z"/><path d="M193.176 78.289c1.891-1.001 5.274-3.012 5.729-4.801l1.945 1.414c-1.439 2.275-2.998 2.763-5.709 4.429l-1.965-1.042z"/></g><path fill="#F9A983" d="M185.338 73.335c1.881-1.003 5.273-3.01 5.75-4.795l1.93 1.42c-1.428 2.261-3.01 2.741-5.697 4.42l-1.983-1.045zM175.504 63.07l-1.877-.679c-2.445 1.2-5.025 2.978-6.738 4.583l1.261.511c2.532-1.89 5.731-3.849 7.354-4.415zM170.423 61.082l-1.952-.553c-3.91 2.348-4.861 3.213-6.563 4.832l1.602.389c.668-.854 1.555-1.753 6.913-4.668zM165.139 59.558l-2.258-.225c-2.33 1.137-4.639 3.504-6.353 5.111l1.741.174c1.601-1.783 4.726-4.193 6.87-5.06zM158.997 58.796l-1.936-.055c-2.539 1.589-4.846 5.336-3.883 5.609l1.068-.025c.846-2.265 2.381-3.876 4.751-5.529zM154.178 58.902l-1.734.311c-3.41 2.904-3.773 5.533-2.84 5.176l.718.088c.136-.886.239-2.421 3.856-5.575zM149.875 59.512l-1.898.596c-2.01 1.443-3.133 4.813-2.232 4.649l.879-.176c.173-1.197.683-2.75 3.251-5.069zM163.087 72.755l-1.624-.487c.109-1.853 1.082-4.907 2.024-6.407l1.499.312c-1.225 1.643-1.927 5.129-1.899 6.582z"/><path fill="#F9A983" d="m167.958 73.963-1.601-.487c.104-1.855 1.064-4.906 2.002-6.406l1.486.293c-1.198 1.661-1.901 5.139-1.887 6.6zM157.854 71.418l-1.463-.509c.09-1.918.773-4.697 1.748-6.217l1.551.119c-1.217 1.663-1.811 5.569-1.836 6.607zM153.223 70.248l-1.492-.307c.108-1.857 1.161-4.066 2.123-5.568l1.358.055c-1.209 1.67-1.977 4.354-1.989 5.82zM148.977 69.658l-1.359-.127c.105-1.85 1.077-3.578 2.018-5.092l1.477.004c-1.202 1.652-2.126 3.75-2.136 5.215zM145.239 69.546l-1.154-.01c.471-2.381 1.117-3.381 2.072-4.895l1.246-.129c-1.449 1.788-1.756 2.842-2.164 5.034zM141.944 69.687l-1.008.226c.602-2.444.752-3.03 1.721-4.554l1.072-.097c-1.205 1.648-1.512 2.808-1.785 4.425zM143.129 65.224c.049-.683.247-1.439.721-2.398-.521.522-1.039 1.036-1.549 1.586l-.295.963 1.123-.151zM139.012 70.095c.386-1.326.814-2.639 1.824-4.1a68.76 68.76 0 0 0-2.297 2.744c-.143.383-.275.885-.457 1.602l.93-.246z"/><path d="M155.567 60.026c-8.291 3.483-19.643 6.163-37.135 5.524 0 0-27.102-1.977-41.701-.738v.014c-5.707.141-29.898 2.594-52.064 10.824-2.463.914-3.64 1.738-4.754 2.877-.482.633-1.521 2.41-2.043 3.497 0 0-6.771.805-10.896 2.506-5.869 2.42-8.068 5.578-6.465 11.109 3.756 12.916 19.105 15.451 19.105 15.451s-3.691-9.105-.266-9.172c1.545-.029 6.008 1.059 9.279 2.584 1.806.779 10.035 4.734 18.201 11.693l-9.631 30.441h111.02a29.857 29.857 0 0 0 10.402-2.021c-.65.777-1.123 1.24-1.637 2.137l-8.193 14.354h45.145c11.301-.162 21-5.881 24.994-14.469h102.238c12.715 0 22.461-5.611 26.129-14.137 4.393-9.881-.662-15.213-.662-15.213 5.014-3.082 7.412-7.232 8.311-10.135l5.111-15.826h-99.16l5.375-17.125h-13.199c-12.361.113-21.688 7.329-24.83 17.094h-87.01c8.283-3.596 21.628-12.058 28.352-38.409 0 0-5.846 4.078-14.016 7.14z"/><path fill="#FFF" d="M104.036 121.838c6.398-.123 11.191-2.818 13.32-4.635 0 0-3.271 19.41-26.201 19.521h-46.07l7.862-25.061s-9.235-10.787-26.273-14.955c-6.012-1.723-14.762-2.248-15.395.635-.25.879.242 3.74.813 6.033 0 0-2.707-1.254-4.357-3.27-.54-.541-3.137-3.746-3.35-7.262-.117-1.91.785-3.264 2.232-4.252 3.666-2.377 13.963-3.461 13.963-3.461l.941-2.086c.945-2.11 1.812-3.069 3.131-3.592C48.127 70.111 75.874 68.5 76.115 68.5l-.162.004c1.986-.124 4.578-.211 7.5-.26 12.546-.817 29.604.801 30.846.922 12.316.779 20.331.414 25.652-.393 8.102-.872 15.436-5.857 15.436-5.857s-6.941 15.643-23.495 20.03c-6.938 1.951-14.062 2.043-20.659 2.059H98.715c-6.249 0-7.887 2.367-8.594 4.416l-1.645 5.467h20.92c7.744.268 13.059-2.914 15.44-4.939 0 0-3.226 19.182-26.122 19.516l-14.695.004-3.904 12.369h23.921z"/><path fill="#F15A28" d="M97.868 81.245c-6.936 0-9.865 2.718-11.106 6.308l-2.722 8.912h24.477c4.186-.043 8.438-.07 11.561-2.727-2.414 5.844-9.314 12.313-22.207 12.025l-16.658.006-5.47 17.66h25.554c4.182-.041 8.154-.246 11.479-2.557-2.303 5.805-9.729 12.287-22.357 11.975H48.111l7.271-23.301S40.068 93.577 17.974 92.454c-4.087-.063-6.766.307-8.41 1.176-1.939 1.029-.779 4.35-.779 4.35s-2.307-2.283-2.75-5.127c-.441-2.818 3.131-4.439 8.361-5.443 3.877-.691 7.127-.973 7.127-.973l1.42-3.072c.4-.822.848-1.484 1.391-1.967.882-.801 2.369-1.309 2.369-1.309C49 72.197 75.266 70.076 75.266 70.076h.004c1.926-.118 4.506-.207 7.406-.255 12.688-.84 30.594.917 30.594.917 29.705 2.152 35.355-2.804 38.197-4.824.043-.043-.006.047.039 0-10.631 13.734-23.654 15.411-41.119 15.331H97.868z"/><path fill="#FFF" d="m58.091 100.828 2.528-8.068c1.686-5.66 3.145-7.461 8.357-9.678 5.211-2.217 15.248-3.365 15.248-3.365-14.596-2.108-44.795-.794-55.784 2.869-2.349.785-3.187 2.904-3.187 2.904l15.402-1.297-5.814 3.582c-5.713-1.98-10.049-1.07-10.049-1.07-3.671 1.619-4.264 4.754-4.264 4.754 19.233.109 37.563 9.369 37.563 9.369z"/><g fill="#FFF"><path d="M253.138 77.886c-9.457.041-17.736 5.555-19.828 12.321l-14.404 46.504h19.723l18.303-58.825h-3.794zM293.36 116.922c2.646-1.961 4.588-4.473 5.502-7.416.006-.014 4.406-14.316 4.406-14.316h-31.432c-11.762.24-16.973 5.871-18.672 10.65l-.02.049-9.646 30.816h32.051c8.689-.014 16.115-4.107 18.686-12.334l2.287-7.449h-3.162zm-21.701-7.121 1.047-3.285h7.406l-1.051 3.285h-7.402zm2.826 15.373h-7.604c.574-1.84.9-2.793 1.297-4.068h9.316c-1.462 1.212-2.261 2.246-3.009 4.068zM193.423 139.715h-12.886c-9.489 0-15.286 2.344-18.151 7.352l-2.346 4.117h33.594c9.502-.139 17.422-5.078 19.748-12.293l13.584-43.701h-31.199s-15.086-.303-19.065 12.172l-9.117 29.344h20.855c2.574-.021 4.579-.389 6.237-1.082l-1.254 4.091zm10.299-33.358c-1.457 4.678-5.055 16.057-5.904 18.797h-6.852c1.455-4.682 5.055-16.057 5.905-18.797h6.851zM115.459 136.711h32.453c8.797-.127 16.32-4.99 18.408-11.828.002-.002 9.243-29.693 9.243-29.693h-31.956c-9.077-.053-16.723 4.756-18.947 11.939-.014.057-2.472 7.965-2.472 7.965h3.132c-2.621 1.832-4.639 4.713-5.553 7.715l-4.308 13.902zm23.399-11.557 1.049-3.4h7.701l-1.049 3.4h-7.701zm13.521-18.638-1.23 3.986h-9.918c1.885-1.141 2.734-2.684 3.318-3.986h7.83zM293.319 136.693h27.719c10.939 0 16.803-6.357 18.646-12.309 0 0 1.031-3.305-.213-6.158-.725-1.764-1.844-3.117-3.924-4.195-1.096-.529-3.246-1.559-5.15-2.475 11.133-.803 14.994-5.541 16.232-9.533l1.029-3.307 1.117-3.568H320.78c-9.234.096-16.08 4.691-18.346 12.301-1.787 6.977 3.545 9.436 3.545 9.436l6.266 3.041c-11.387.432-15.391 5.559-16.645 9.609l-2.281 7.158zm28.887-29.062.377-1.115h3.012l-.768 2.373-2.621-1.258zm-5.463 17.521c.242-.768.551-1.74.551-1.74l.283-.898c.947.459 2.258 1.094 2.6 1.258l-.43 1.381-3.004-.001z"/></g><g fill="#F15A28"><path d="m221.876 132.875 13.17-42.424c2.092-6.061 9.508-10.723 17.25-10.833l-16.574 53.256h-13.846zM279.343 117.447c8.119-.355 14.318-4.369 16.01-9.803l3.309-10.873h-27.707c-7.738.193-14.059 3.707-16.258 9.896l-8.213 26.199h28.188c8.285-.027 13.742-3.719 16.01-10.32l1.227-3.887c-7.486-.021-14.529 2.016-16.338 7.717l-.129.504h-13.186l2.939-9.416 14.148-.017zm3.545-14.568-2.68 8.629h-13.166l2.676-8.629h13.17zM198.96 126.859h-12.613l7.453-23.98h12.617l-7.457 23.98zm-34.898 20.524h28.69c7.747-.109 15.073-3.998 17.131-10.383l12.477-40.229h-27.473c-7.751.193-14.04 4.404-16.346 10.443l-7.982 25.654h16.996c7.524 0 10.52-3.15 10.52-3.15l-3.457 11.613h-14.934c-6.687.001-12.889 1.273-15.622 6.052zM147.702 126.859h-13.465l2.719-8.742h13.465l-2.719 8.742zm-4.977-30.084c-7.682-.012-14.438 4.342-16.23 10.113l-1.355 4.377c7.219.227 14.601-2.117 16.326-7.771l.195-.615h13.506l-2.904 9.328h-14.389c-8.225.064-14.508 4.705-16.235 10.359l-3.208 10.309h28.563c7.744-.111 14.02-4.195 15.744-9.844l8.129-26.256h-28.142zM336.173 122.525c-1.75 5.654-7.217 10.33-15.977 10.33h-23.832l1.102-3.553c1.754-5.65 8.58-7.652 16.32-7.764l-1.682 5.316h8.787l1.289-4.143c.25-.811 0-1.475-.598-1.932l-15.064-7.328c-1.705-.852-3-3.682-2.207-6.246v-.016c1.83-6.148 7.295-10.252 15.709-10.42h24.133l-1.031 3.393c-1.756 5.652-8.188 7.668-16.311 7.717l1.568-5.002h-8.785l-1.156 3.729c-.254.813 0 1.479.598 1.934l14.789 7.092c3.719 2.235 2.348 6.893 2.348 6.893z"/></g><path fill="#FFF" d="m188.741 198.658 3.127-.074c.672-.016 1.168-.104 1.493-.26.535-.264.797-.746.779-1.453-.021-.668-.291-1.098-.803-1.301-.294-.121-.803-.174-1.52-.152l-2.595.059c-.894.023-1.539.18-1.913.477-.348.281-.518.721-.504 1.316.069.964.713 1.425 1.936 1.388m6.344 5.221-5.85.139c-1.65.041-2.834-.432-3.558-1.408-.405-.539-.595-1.168-.683-1.834-.123-.885-.083-3.059-.096-3.555-.029-1.275.392-2.061.826-2.557.454-.516 1.251-.979 1.949-.996.611-.023.615-.018 1.219-.029l2.991-.072c1.375-.029 2.335.125 2.902.484.773.48 1.176 1.443 1.213 2.898.01 1.365-.395 2.303-1.158 2.813-.555.373-1.49.572-2.805.602 0 0-5.101.084-5.098.117.011.518.162 1.123.693 1.402.514.277 1.143.313 1.713.301l5.747-.135-.005 1.83zM181.387 197.957c-.512-.424-1.298-.686-2.135-.84l-3.692-.686c-.493-.09-1.585-.389-1.417-1.305l.148-.814c.119-.637.428-.916 1.688-.682 0 0 6.238 1.152 6.471 1.197.041-.232.239-1.303.282-1.535l-6.268-1.156c-1.045-.197-1.855-.215-2.408-.055-.877.244-1.409.91-1.619 2.049l-.152.82c-.157.855.055 1.553.639 2.129.471.455 1.07.756 1.787.885l4.273.791c1.2.225 1.352.594 1.229 1.248l-.128.699c-.11.605-.335.998-1.399.799l-7.102-1.314c-.041.232-.249 1.352-.293 1.586.283.051 6.849 1.268 6.849 1.268 1.71.316 2.825.082 3.321-.688.197-.307.356-.797.475-1.449l.133-.717c.178-.955.013-1.644-.682-2.23zM165.638 195.025l-2.983-.967c-.646-.207-1.143-.293-1.504-.25-.596.072-1.002.445-1.221 1.119-.199.641-.09 1.139.332 1.496.24.215.701.432 1.381.652l2.482.803c.857.279 1.519.34 1.975.184.423-.145.724-.504.911-1.076.257-.935-.202-1.588-1.373-1.961m-4.27-7.052 5.58 1.811c1.582.512 2.545 1.352 2.904 2.523.475 1.498-.317 3.111-.771 4.512-.155.48-.309.953-.466 1.432-.236.732-.667 1.354-1.21 1.74-.526.371-1.166.523-1.829.309-.584-.186-1.165-.375-1.747-.564l-2.863-.93c-1.313-.422-2.168-.893-2.582-1.416-.574-.713-.635-1.764-.184-3.152.438-1.295 1.132-2.051 2.031-2.279.646-.168 1.598-.045 2.854.361 0 0 4.856 1.607 4.867 1.58.158-.494.223-1.113-.188-1.559-.394-.432-.98-.676-1.528-.852l-5.485-1.779.617-1.737zM219.364 194.295l-2.994.947c-.643.205-1.1.424-1.367.668-.441.408-.559.947-.344 1.623.207.637.59.977 1.141 1.025.32.035.82-.059 1.506-.275l2.484-.783c.859-.271 1.432-.607 1.711-.998.262-.365.297-.832.117-1.404-.334-.914-1.088-1.18-2.254-.803m-7.576-3.258 5.596-1.771c1.582-.5 2.855-.379 3.828.365 1.256.947 1.551 2.719 1.992 4.125l.453 1.434c.234.732.244 1.494.025 2.117-.209.613-.641 1.107-1.307 1.32-.584.186-1.17.371-1.75.551l-2.869.91c-1.313.416-2.285.531-2.926.348-.881-.252-1.543-1.066-1.988-2.459-.391-1.309-.266-2.332.334-3.037.43-.516 1.275-.965 2.537-1.363 0 0 4.885-1.514 4.875-1.541-.156-.494-.465-1.039-1.057-1.16-.574-.125-1.189.021-1.738.195l-5.502 1.736-.503-1.77z"/><g fill="#FFF"><path d="m222.615 183.702 1.72-.658 4.922 12.867-1.72.658zM233.884 193.752l-1.707.707-5.276-12.727 1.7-.705z"/></g><path fill="#FFF" d="m155.356 189.367-.082-.086c.766.043 1.351.031 1.908-.566.279-.297.629-.824 1.042-1.572.403-.736.564-1.486.476-2.236a3.166 3.166 0 0 0-.869-1.844c-.342-.357-.889-.744-1.625-1.154l-6.732-3.725-6.627 11.982 6.936 3.836c.951.529 1.88.752 2.745.66 1.106-.129 1.955-.758 2.597-1.92.311-.557.53-1.115.656-1.67.167-.718.071-1.172-.425-1.705zm-2.061 2.815c-.484.654-1.395.615-2.648-.078l-5.221-2.887 1.782-3.221.208.113 5.174 2.863c1.205.664 1.648 1.365 1.314 2.1l-.609 1.11zm2.774-5.02c-.379.686-1.167.709-2.334.063l-5.486-3.035 1.83-3.307.207.115 5.085 2.813c1.296.717 1.743 1.465 1.325 2.219l-.627 1.132zM210.017 198.041l-.283-1.982c-.182-1.305-.717-2.27-1.605-2.885-.893-.621-1.732-.871-3.234-.66l-1.289.184-3.699.52-.457-3.211-1.848.26.457 3.213.248 1.781.422 2.994.193 1.354c.184 1.307.723 2.27 1.611 2.891.893.619 1.73.873 3.229.658l1.553-.221 1.033-.145c1.498-.215 2.24-.688 2.922-1.527.688-.843.93-1.917.747-3.224zm-1.873.086c.107.77-.049 1.416-.471 1.949-.418.533-.707.809-1.57.928l-1.039.148-.262.037-1.297.184c-.863.123-1.223-.064-1.77-.461-.551-.396-.883-.977-.992-1.742l-.164-1.178-.424-2.994 3.959-.559 1.043-.146c.863-.121 1.219.066 1.766.463.549.393.881.975.988 1.738l.233 1.633zM244.507 169.631l9.135 10.221c.137-.121 1.15-1.029 1.381-1.232-.248-.271-8.885-9.938-9.137-10.219-.28.249-1.311 1.167-1.379 1.23zM236.938 179.566c.125-.943.281-1.58 1.334-2.426 0 0 5.012-4.002 5.467-4.369a526.11 526.11 0 0 0-1.162-1.451c-.455.367-5.457 4.365-5.457 4.365-1.652 1.32-2.088 2.35-2.291 3.68-.207 1.375.236 2.762 1.311 4.104l1.729 2.168c1.082 1.348 2.336 2.08 3.729 2.184 1.338.092 2.434-.107 4.084-1.43 0 0 5.002-3.996 5.459-4.365-.258-.32-.9-1.127-1.156-1.445-.459.363-5.467 4.371-5.467 4.371-1.055.842-1.707.85-2.658.768-1.012-.09-1.895-.594-2.615-1.496l-1.424-1.779c-.72-.9-1.017-1.873-.883-2.879zM269.872 152.637l-1.676-1.1c-1.104-.723-2.408-.604-3.459-.344-1.049.26-1.797.73-2.625 1.994l-.713 1.092-2.051 3.129-2.713-1.777-1.023 1.561 2.715 1.779 1.506.984 2.529 1.654 1.143.75c1.104.723 2.184.951 3.236.693 1.051-.264 1.793-.729 2.625-1.996l.857-1.314.57-.869c.832-1.266.961-2.137.781-3.203-.182-1.07-.596-2.315-1.702-3.033zm-1.394 1.81c.648.424 1.029.967 1.152 1.639.127.666.143 1.064-.338 1.797l-.572.871-.145.223-.717 1.094c-.482.734-.857.881-1.516 1.033-.658.15-1.316.018-1.959-.404l-1-.652-2.525-1.654 2.188-3.352.574-.875c.479-.732.855-.875 1.514-1.025.66-.154 1.316-.02 1.959.404l1.385.901zM260.69 172.697c-.854.967-1.82 1.471-2.885 1.498-1.064.023-1.887-.223-3.002-1.211l-4.461-3.932 1.268-1.436 4.461 3.936c.646.57 1.037.609 1.701.582.668-.027 1.246-.328 1.752-.898l.879-.998c.504-.568.732-1.188.674-1.852-.055-.662-.146-1.047-.787-1.617l-4.463-3.934 1.264-1.432 4.459 3.93c1.113.984 1.461 1.775 1.572 2.834.109 1.057-.268 2.076-1.125 3.049l-1.307 1.481zM127.309 158.559c-.052-.863-.354-1.748-.899-2.635 0 0-3.851-6.264-4.089-6.648-.395.221-11.555 6.48-11.943 6.699.177.295.801 1.311.982 1.605.373-.211 4.258-2.391 4.258-2.391l3.059 4.986c.623 1.012 1.336 1.727 2.125 2.131 1.049.543 2.146.477 3.352-.197l1.816-1.02c.97-.542 1.409-1.372 1.339-2.53zm-4.059 1.941c-.611.34-1.558.393-2.6-1.307l-3.121-5.076 3.863-2.164.125.199 2.998 4.873c.229.373.39.807.482 1.277.143.727-.004 1.219-.447 1.465l-1.3.733zM119.18 169.035l5.455-4.682c1.652-1.42 3.242-1.174 4.848.771l2.533 3.07c-.227.195-1.17 1.006-1.393 1.195-.191-.234-2.527-3.063-2.527-3.063-.945-1.146-1.84-.795-2.234-.455l-5.438 4.668a289.542 289.542 0 0 0-1.244-1.504M140.09 176.797c-.121-1.09-.486-1.895-1.632-2.895l-.991-.863-1.793-1.559c-1.145-.998-1.996-1.248-3.089-1.213-1.089.037-2.069.555-2.938 1.555l-1.326 1.521c-.871 1-1.244 2.041-1.131 3.127.117 1.086.482 1.893 1.631 2.889l1.595 1.389-.001.002 1.187 1.035c1.148.998 2 1.244 3.093 1.213 1.088-.039 2.066-.553 2.937-1.555l1.325-1.518c.872-1.005 1.247-2.046 1.133-3.128zm-3.757 3.277c-.512.588-1.111.895-1.791.93-.68.033-1.084-.008-1.746-.584l-.995-.867-.198-.172-1.597-1.389c-.666-.578-.759-.971-.821-1.648-.061-.68.164-1.311.676-1.9l1.089-1.25c.511-.588 1.106-.896 1.788-.932.68-.029 1.083.008 1.744.584l1.598 1.389.199.174.996.865c.662.578.758.971.814 1.648.065.682-.154 1.313-.67 1.9l-1.086 1.252z"/><g fill="#FFF"><path d="m137.221 50.367-1.254 1.291-5.132-4.99-5.987 6.158 5.129 4.99-1.256 1.288-9.867-9.595 1.254-1.291 3.25 3.158 5.984-6.16-3.244-3.155 1.255-1.292zM200.224 25.512l-3.125-.251c-.674-.054-1.18-.02-1.518.105-.564.209-.873.664-.93 1.372-.045.668.178 1.124.668 1.377.283.153.785.257 1.5.312l2.596.209c.898.073 1.553-.023 1.961-.279.375-.236.588-.658.637-1.258.033-.969-.565-1.497-1.789-1.587m-5.786-5.868 5.844.468c1.654.131 2.787.722 3.406 1.778.807 1.346.414 3.098.295 4.566-.039.502-.08 1-.123 1.5-.059.763-.33 1.469-.771 1.97-.424.483-1.01.776-1.703.724-.613-.047-1.221-.096-1.834-.146l-2.996-.238c-1.371-.108-2.313-.365-2.838-.777-.725-.561-1.026-1.568-.907-3.021.125-1.359.625-2.256 1.444-2.688.592-.313 1.543-.413 2.859-.307 0 0 5.096.436 5.096.407.045-.516-.041-1.137-.543-1.47-.482-.33-1.107-.432-1.68-.477l-5.748-.46.199-1.829zM150.409 29.328c1.171-.613 2.264-.74 3.283-.383 1.027.363 1.723.899 2.43 2.244l2.814 5.355-1.594.84-2.823-5.369c-.403-.77-.765-.953-1.407-1.168-.64-.215-1.307-.143-1.99.215l-1.463.77c-.686.361-1.121.869-1.305 1.518-.191.649-.244 1.051.162 1.823l2.82 5.364-1.596.84-2.814-5.357c-.703-1.346-.752-2.221-.469-3.273.283-1.043 1.01-1.873 2.18-2.486l1.772-.933zM173.423 21.285l1.642 5.646c.248.84.113 1.218-.201 1.818-.313.602-.836 1.008-1.582 1.226l-1.078.313c-.742.215-1.406.155-1.99-.186-.587-.34-.906-.588-1.148-1.426l-1.643-5.646-1.813.527 1.641 5.646c.247.839.115 1.218-.201 1.821-.314.6-.842 1.006-1.586 1.225l-1.073.313c-.741.214-1.409.152-1.995-.185-.588-.339-.902-.59-1.149-1.429l-1.642-5.646-1.729.502 1.688 5.812c.424 1.454.999 2.119 1.931 2.677.93.559 2.027.654 3.299.283l1.414-.412c1.268-.367 2.145-1.039 2.631-2.004.057-.115.109-.23.155-.346.101.072.21.139.318.207.93.555 2.03.65 3.296.282l1.42-.415c1.264-.365 2.139-1.035 2.627-2.004.486-.971.614-1.842.191-3.297l-1.689-5.811-1.734.509zM188.645 20.894c-.799-.729-1.857-1.043-3.17-.938l-2 .162c-.957.078-1.736.354-2.357.822l-.334-4.117-1.803.146 1.114 13.809 1.833-.148-.488-6.042c-.07-.87.139-1.215.563-1.743.429-.52 1.028-.816 1.8-.878l1.646-.132c.769-.064 1.411.132 1.917.578.504.451.766.761.836 1.631l.484 6.043 1.801-.146-.488-6.033c-.122-1.51-.557-2.278-1.354-3.014zM141.76 40.636l-2.516 1.878c-.541.402-.899.763-1.074 1.083-.281.525-.215 1.072.209 1.642.408.53.878.726 1.412.593.313-.07.755-.324 1.336-.752l2.085-1.559c.722-.539 1.149-1.039 1.29-1.502.123-.428.006-.883-.354-1.366-.608-.748-1.41-.753-2.388-.017m-8.224-.585 4.707-3.509c1.326-.992 2.57-1.297 3.729-.91 1.496.48 2.354 2.055 3.233 3.237.3.404.604.806.898 1.206.459.615.723 1.323.718 1.991.003.645-.243 1.253-.798 1.673l-1.473 1.096-2.412 1.795c-1.1.826-1.982 1.252-2.646 1.289-.916.055-1.808-.5-2.681-1.67-.801-1.105-1.014-2.109-.686-2.973.242-.625.889-1.33 1.947-2.119 0 0 4.121-3.032 4.099-3.057-.306-.414-.778-.825-1.378-.746-.584.072-1.113.408-1.574.752l-4.626 3.449-1.057-1.504zM257.714 42.406l-9.676 10.697c.146.129 1.199 1.088 1.445 1.305.258-.287 9.404-10.4 9.672-10.695a686.372 686.372 0 0 1-1.441-1.307zM257.8 55.304l2.184 2.458c.469.529.881.866 1.227 1.021.574.252 1.137.129 1.693-.367.523-.465.684-.977.498-1.527-.105-.316-.408-.76-.912-1.324l-1.813-2.041c-.621-.7-1.189-1.11-1.68-1.208-.463-.089-.934.069-1.4.491-.731.708-.66 1.54.203 2.497m.121 8.639-4.086-4.598c-1.152-1.295-1.584-2.566-1.289-3.811.158-.69.535-1.273 1.006-1.796.629-.704 2.396-2.151 2.787-2.499 1.004-.892 1.918-1.084 2.609-1.072.725.014 1.637.336 2.129.884.432.478.428.481.852.96l2.092 2.352c.961 1.082 1.49 1.959 1.586 2.654.141.945-.359 1.931-1.498 2.944-1.092.937-2.115 1.251-3.045.985-.68-.193-1.473-.809-2.393-1.84 0 0-3.533-4.035-3.561-4.012-.408.361-.793.896-.654 1.51.127.598.525 1.131.928 1.579l4.018 4.521-1.481 1.239zM269.341 71.308c-.039-.698-.396-1.492-.877-2.25l-2.109-3.342c-.279-.447-.826-1.506 0-2.027l.738-.465c.574-.361 1.014-.326 1.73.814 0 0 3.561 5.646 3.691 5.855l1.387-.875-3.572-5.667c-.598-.947-1.162-1.586-1.678-1.9-.82-.507-1.711-.439-2.74.208l-.744.471c-.777.49-1.164 1.146-1.188 2.012-.02.689.178 1.368.586 2.014l2.441 3.871c.684 1.084.504 1.462-.084 1.836l-.633.396c-.551.35-1.012.451-1.619-.51 0 0-3.891-6.168-4.047-6.422l-1.438.905c.162.253 3.908 6.192 3.908 6.192.977 1.547 1.951 2.246 2.898 2.078.377-.068.869-.297 1.463-.666l.645-.41c.869-.544 1.283-1.165 1.242-2.118zM234.384 36.14l-2.912-1.561c-.627-.334-1.129-.514-1.508-.536-.633-.038-1.121.271-1.473.931-.328.625-.305 1.157.064 1.609.207.269.648.577 1.311.934l2.418 1.295c.834.447 1.508.635 2.01.56.461-.071.842-.39 1.143-.946.439-.923.085-1.682-1.053-2.286m-3.112-8.099 5.443 2.916c1.537.826 2.383 1.873 2.535 3.152.209 1.64-.91 3.16-1.641 4.526-.254.47-.5.932-.748 1.399-.383.708-.943 1.273-1.58 1.572-.611.289-1.303.324-1.949-.02-.57-.303-1.139-.607-1.703-.91l-2.791-1.496c-1.275-.684-2.078-1.33-2.408-1.949-.459-.846-.33-1.943.396-3.299.695-1.258 1.555-1.91 2.529-1.98.699-.053 1.662.253 2.885.908 0 0 4.729 2.569 4.744 2.543.26-.48.439-1.111.096-1.648-.324-.521-.887-.882-1.418-1.168l-5.35-2.865.96-1.681zM251.634 42.75l.018-.021-.027-.024c-.047-.204-.086-.415-.172-.626-.326-.846-.893-1.586-1.688-2.205l-2.686-2.103c-2.16-1.687-3.82-1.728-5.078-.121l-2.807 3.591c-1.383 1.77-1.008 3.446 1.137 5.125l3.146 2.458c.436.255 1.045.644 1.75.522l-.58.732c-.314.351-.717.674-1.289.658-.607-.018-1.305-.379-1.775-.746l-4.814-3.766-1.014 1.299 5.059 3.955c.754.586 1.432.934 2.09 1.07a3.165 3.165 0 0 0 1.613-.076c.633-.191 1.115-.604 1.561-1.078l.445-.57 4.5-5.758c.564-.723.755-1.49.611-2.316zm-4.467 4.091c-1.217 1.557-2.682.193-2.682.193l-.01.016-2.867-2.24c-.041-.033-.074-.065-.117-.096l.01-.012s-1.703-1.105-.441-2.674l-.01-.009 1.957-2.501.01.008c1.219-1.611 2.707-.219 2.707-.219l.018-.028c.596.471 2.533 1.985 2.533 1.985.109.085.264.211.434.365l-.006.009s.055.038.131.101c.139.124.275.264.4.419.359.463.646 1.214-.07 2.13l-1.997 2.553zM216.837 23.066c.254-.738.941-1.234 2.338-.971.479.067 7.293 2.455 8.348 2.811l.713-2.074c-.322-.109-7.762-2.666-7.762-2.666a5.845 5.845 0 0 0-1.537-.309c-1.594-.088-3.176.504-3.727 2.11l-.42 1.222c-.498 1.443-1.266 3.686-1.355 3.942a325.465 325.465 0 0 1-.689 2.003c-.188.551-.244 1.139-.096 1.709.369 1.438 1.811 2.488 3.141 2.946 0 0 7.439 2.556 7.766 2.666.104-.308.607-1.77.713-2.073-1.053-.365-7.895-2.676-8.314-2.906-1.264-.656-1.502-1.472-1.252-2.206l.547-1.598c.127-.366.092-.261.092-.261s8.732 2.998 9.109 3.129c.105-.309.602-1.756.711-2.068-.377-.131-9.107-3.13-9.107-3.13l.527-1.539.254-.737z"/></g><path fill="#FFF" d="m143.711 182.727-1.05 1.511-2.51-1.666 1.052-1.511z"/></svg>