<svg xmlns="http://www.w3.org/2000/svg" xmlns:xlink="http://www.w3.org/1999/xlink" xml:space="preserve" id="레이어_1" x="0px" y="0px" style="enable-background:new 0 0 465.1 468.2" version="1.1" viewBox="0 0 465.1 468.2"><style>.st0{fill:#fff}.st1{fill:#002063}</style><g id="XMLID_00000036248180101338576610000012183730102344977070_"><path d="M281.8 92.5 189.3 0 0 189.3l278.8 278.9 186.3-186.3V92.5z" class="st0"/><g id="XMLID_00000016767003157983284380000003134634571761880742_"><path d="M337.9 73.4c5.2-4.9 9.3-8.8 12.2-12 1.4-1.5 2.4-2.8 3-3.9.6-1.1.9-2.3.9-3.4 0-1-.3-1.9-1-2.7-.6-.7-1.5-1.1-2.4-1.1-1.2 0-2.3.6-3 1.7-.8 1.1-1.1 2.5-1.1 4.3h-9c0-2.6.6-4.9 1.7-6.8 1.1-2 2.7-3.5 4.7-4.6 2-1.1 4.3-1.6 6.8-1.6 2.4 0 4.6.5 6.4 1.5 1.9 1 3.3 2.3 4.4 3.9 1 1.7 1.6 3.5 1.6 5.5s-.5 3.9-1.4 5.7c-.9 1.9-2.4 3.8-4.4 5.8-2.7 2.8-5.6 5.5-8.8 8.2 1.8-.8 3.6-1.1 5.4-1.1h9.9v7.1H338v-6.5zM374 78.6c-2.1-1.4-3.7-3.5-4.9-6.3-1.1-2.7-1.7-6.1-1.7-9.9 0-4.1.6-7.5 1.7-10.4 1.1-2.9 2.8-5.1 4.9-6.6 2.1-1.5 4.6-2.2 7.4-2.2 2.9 0 5.3.8 7.4 2.3 2.1 1.5 3.7 3.7 4.8 6.6 1.1 2.9 1.6 6.3 1.6 10.3 0 3.8-.6 7.1-1.6 9.9-1.1 2.7-2.7 4.8-4.8 6.3-2.1 1.4-4.5 2.2-7.4 2.2-2.8 0-5.3-.7-7.4-2.2zm11-8.1c.9-2 1.3-4.9 1.3-8.8 0-3.7-.4-6.5-1.3-8.4-.9-2-2.1-3-3.7-3s-2.8 1-3.7 3.1c-.9 2.1-1.3 5-1.3 8.6 0 3.6.4 6.4 1.3 8.6.9 2.1 2.1 3.1 3.7 3.1 1.7 0 2.9-1.1 3.7-3.2zM399.3 73.4c5.2-4.9 9.3-8.8 12.2-12 1.4-1.5 2.4-2.8 3-3.9.6-1.1.9-2.3.9-3.4 0-1-.3-1.9-1-2.7-.6-.7-1.5-1.1-2.4-1.1-1.2 0-2.3.6-3 1.7-.8 1.1-1.1 2.5-1.1 4.3h-9c0-2.6.6-4.9 1.7-6.8 1.1-2 2.7-3.5 4.7-4.6 2-1.1 4.3-1.6 6.8-1.6 2.4 0 4.6.5 6.4 1.5 1.9 1 3.3 2.3 4.4 3.9 1 1.7 1.6 3.5 1.6 5.5s-.5 3.9-1.4 5.7c-.9 1.9-2.4 3.8-4.4 5.8-2.7 2.8-5.6 5.5-8.8 8.2 1.8-.8 3.6-1.1 5.4-1.1h9.9v7.1h-25.8v-6.5zM444.8 72.7h-16.5v-6.3l10.6-22.2h14.7V66h4.1v6.8h-4.1V80h-8.8v-7.3zm0-6.8v-7.7c0-3.5.1-6.5.3-8.9-.5 1.6-1.5 4.2-3.1 7.9l-3.8 8.7h6.6z" class="st1"/><path d="M278.8 457.7 99.9 278.8V99.9h357.8v178.9z" style="fill:#e50012"/><defs><path id="SVGID_1_" d="M278.8 457.7 99.9 278.8V99.9h357.8v178.9z"/></defs><clipPath id="SVGID_00000154388086409202423950000004890896481087543950_"><use xlink:href="#SVGID_1_" style="overflow:visible"/></clipPath><path d="M107.6 44.3h253v379.5h-253z" style="fill:#009fe8" transform="rotate(-45.001 234.067 234.06)"/><path d="M429.3 174c-4.6 1.9-2.9 8.1-1.8 12.2.6 2.1 1.1 3.6 2.7 6.4 1.6 2.8 5.9 6.1 13.3 9.2-1.5.9-5.1 1.9-7.6 2.6 2.9 4.3 6.2 8.2 9.9 11.5 7.6 6.6 10.4 6.8 10.4 6.8s1-4.5.5-8.9c-.2-2-1.1-3.5-2.1-4.4-3.5-2.9-6-5.9-8.4-9.6-4.9-7.5-10.7-20-.5-21.5 5 4 9 9.5 12 15.3v-14c-6.6-2.9-12.5-4.8-17.6-5.7-3.3-.6-7.9-1.1-10.8.1z" class="st1"/><path d="M445 139.7c-5.7-.2-12.3 1.2-15.3 1.8.1-2.9 11.7-8.2 11.7-8.2s-29.7-11.6-53.2 4.4c-8.8 6-21.7 18.2-25 44.7-.1.6-.1 1.2-.2 1.8l-5.8-5.8c1.6-8.4 4.6-17.5 9.5-27.1-8.1 1.8-15.9 5.3-23 13.5l-65-65H99.9v178.9l178.9 178.9 178.9-178.9v-40.4c-4.4 9.5-11 17.4-17.6 22.8l-15-15c3.5-9.6 3-20-.2-30.4-2.8-8.5-7.6-10.2-16.9-13.8 1.9-1.1 5.9-2.4 8.4-3.1-7.3-8.3-18.2-14.4-28.6-12.7-4 .7-7.8 1.9-10.9 7 6.2-1 15.4 2.1 20.4 6 10.6 8.5 14.7 20.9 13.1 32.4l-40-40c.4-.8.9-1.6 1.4-2.3 8.9-13.7 25.1-23.2 40.9-25.2 17-2.2 30.4.6 44.9 6.7v-28.2c-4-1.6-8.3-2.7-12.6-2.8z" class="st1"/><path d="m383.4 402.2 2.1-12.1c.6-3.6 1.2-8.2-1.7-12.1-2.8-3.8-7.5-4.5-10.2-4.5l-77.9.1-1 8.3-1.5-2.1c-5.2-5.9-13.2-6.6-18.8-6.6-8.2 0-14.4 1.9-19 5.7 0-.1-.1-.1-.1-.2-4.1-4.7-10.6-4.7-12.7-4.7h-74l8.4 13.4-5.5 38.8h101.9c10.3 0 14.9-3.1 19.5-11.3-.8 9.5 8.1 11.3 12.1 11.3h81.4l2.7-24h-5.7z" class="st1"/><path d="M307.9 407.7c0-.1-.1-.2 0-.3l.8-6.5h14l2.2-17.5c.1-.6 0-1.1-.3-1.5-.3-.4-.8-.5-1.5-.5h-20.6l-.8 6.6h14.1l-.8 6.4h-16.5s1 2.4 1.3 2.9c.5.8.7 1.3.5 2.4l-1.1 9c-.2 1.5.3 2.9 1.2 4 1 1.2 2.5 1.8 4.1 1.8h13.2c2.6 0 5.2-.2 6.9-1.3l.5-.3.6-5.1h-17.3c-.3 0-.4-.1-.5-.1zM328.7 379.5l.5.9c.1.2.9 1.6 1.3 2.1.5.7.6 1.1.5 2.4l-4.4 35.9h8.7l5.1-41.2h-11.7zM374.3 409.8l3.7-20.9c.5-3 .3-4.8-.7-5.9-1.1-1.3-2.9-1.8-6.3-1.8h-23.8l.1.7s.1 1 .4 2.4c.2 1.5 1.6 3.5 1.6 3.6l.2.3h19.9l-3.7 21.7h-26.4l-.9 6.9h41.2l.9-6.9h-6.2zM202.2 398.6c1.9-1.5 7.4-7.4 15-17H207c-7.2 9.5-13.3 15.8-15.5 17.5 1.8.8 6.2 7.3 11.1 19.5h10.3c-4.9-12.2-9.3-18.8-10.7-20zM182 381.6c1 1.7 3.1 2 2.8 4.7l-4.6 32.2h8.5l5.3-37h-12zM242.5 381.6h-24.4c1 1.7 3.1 2 2.8 4.7l-4.6 32.2h21.1c6 0 10.1-2.5 11.2-10 .8-5.8-.5-9.5-4-9.5 3.2 0 5.1-3.5 5.9-8.7.8-5.6-.6-8.7-8-8.7zm-3 25.7c-.4 2.9-1.5 4.1-3.3 4.1h-10.3l1.2-8.5h10.1c1.9 0 2.7 1.3 2.3 4.4zm1.5-14.9c-.4 2.5-1.2 3.5-2.9 3.5H228l1-7h10.1c1.7 0 2.3 1 1.9 3.5zM274.4 380.8c-11.9 0-18.6 4-20.7 19-2.2 15.2 3.3 19.6 15.2 19.6 11.8 0 18.6-4.4 20.8-19.6 2.1-15-3.5-19-15.3-19zm6.1 19.1c-1.5 10.2-3.1 11.7-10.6 11.7s-8.6-1.5-7.2-11.7c1.5-10.1 3-11.3 10.5-11.3s8.7 1.2 7.3 11.3zM186.4 133.4c0-1.4-.1-2.2-.9-3.1-.5-.7-.2-1.3.4-1.3h7.6v5.8c0 5.7 5.6 9.1 10.7 10.8l-1.9 3.5c-.6 1.1-2.7.7-6.5-1.7-2.1-1.3-4.2-3.1-5.6-4.9-1.6 2.3-3.6 4.2-6 5.8-2.7 1.7-6.1 3.4-6.7 2.3l-2-3.8c5.8-2.3 10.8-6.1 10.8-11.6v-1.8zm28.8 30.6v4.9h-25c-5.3 0-7.4-1.4-7.4-5.8v-6.3c0-.9-.3-1.5-.9-2.3-.5-.7-.2-1.3.4-1.3h7.4v9c0 1.4.4 1.8 1.8 1.8h23.7zm-7.7-8.5v-22.8c0-1.5-.3-2.3-1.1-3.2-.5-.7-.2-1.2.5-1.2h7.5v27.2h-6.9zM229.6 131.6c0-1.5-.1-2.2-.9-3.2-.6-.7-.2-1.2.4-1.2h7.5v4.9h9.9v4.8H242c1.4 1.5 2.2 3.4 2.2 5.6 0 5.5-4.1 9.7-11.3 9.7-7.2 0-11.3-4.2-11.3-9.7 0-2.3.8-4.2 2.1-5.6H219V132h10.6v-.4zm27.9 32.4v4.9H233c-5.3 0-7.4-1.4-7.4-5.8v-4.6c0-.9-.3-1.5-.9-2.3-.5-.7-.2-1.3.4-1.3h7.4v7.2c0 1.4.4 1.8 1.8 1.8h23.2zm-19.9-21.8c0-3-1.8-5.3-4.8-5.3-3.1 0-4.8 2.3-4.8 5.3 0 2.8 1.7 5.1 4.8 5.1 3 .1 4.8-2.3 4.8-5.1zm12.5 13.9v-23.4c0-1.5-.2-2.2-1.1-3.2-.6-.7-.2-1.2.4-1.2h7.5v10.3h5v4.9h-5v12.6h-6.8z" class="st0"/><path id="XMLID_00000181086468533159813310000015133942817935967673_" d="M336.9 169v70.7h32.9v12.8h-50.4v-72.7c0-3.6-.6-5.4-2.7-7.7-1.3-1.6-.5-3 1.1-3h19.1z" class="st0"/><path id="XMLID_00000178163865143848705990000015560353387947461766_" d="M191.1 255.7c6.4 5.2 16.6 8.4 23.6 8.4 8.7 0 13.9-3.8 13.9-10.9 0-5.6-2.2-9.1-9.3-12.7-8.1-4.1-14.8-6.7-20.9-12-5.6-4.8-9.6-10.9-9.6-19.7 0-12.5 10.3-21.2 27.5-21.2 9.4 0 17.3 1.6 24.7 4.7v13.2c0 1.9-1.8 2.5-3.3 1.3-6.1-5.1-12.2-7.4-19.4-7.4-7.5 0-11.9 3.5-11.9 9.3 0 4.1 1.6 7 4.4 9.3 5.3 4.4 12 7.5 17.8 10.3 11.1 5.3 17.7 11.5 17.7 24.6 0 16.3-13.8 23-31.3 23-13 0-29.3-6.2-27.2-11.5l3.3-8.7z" class="st0"/><path d="M279 200.3c-24.4 0-44.2 19.8-44.2 44.2s19.8 44.2 44.2 44.2c24.4 0 44.2-19.8 44.2-44.2s-19.8-44.2-44.2-44.2zm0 73.4c-16.2 0-29.3-13.1-29.3-29.3 0-16.2 13.1-29.3 29.3-29.3 16.2 0 29.3 13.1 29.3 29.3-.1 16.2-13.2 29.3-29.3 29.3zM236.9 301.9c10.1 0 16.4 4.6 16.4 12 0 4.7-1.8 8.1-5.4 10.2 5 1.9 8 5.5 8 11.9 0 9-7.3 13.7-18.3 13.7h-16.7V308c0-2.1-.4-3.1-1.5-4.4-.7-.9-.2-1.8.6-1.8h16.9zm-5.9 19.5h5.3c4.6 0 7.1-1.7 7.1-6.3 0-4.7-2.5-6.4-7.3-6.4H231v12.7zm6 6.8h-6v14.7h6.1c5.8 0 8.5-2.3 8.5-7.4 0-5.1-2.8-7.3-8.6-7.3zM265.6 324.1c-1.3.9-2.1.4-2.1-1v-6.4c3.6-1.6 9.1-2.6 13.2-2.6 9.5 0 15 3.7 15 11.3v24.4h-9.5V346c-2.7 3.3-6.6 4.8-10.7 4.8-6.9 0-11.6-4.4-11.6-10.9 0-7.4 5.1-12 15.9-12h6.2v-2.6c0-3.4-2.1-4.8-6-4.8-3.7.1-7.6 1.8-10.4 3.6zm16.4 10.2h-6.3c-4.7 0-6.6 2.1-6.6 5.4 0 2.7 1.6 4.5 4.4 4.5 3.3 0 6.3-1.5 8.4-4v-5.9zM309 315.3v3.4c2.5-2.5 5.6-4.5 9.9-4.5 7.3 0 12.9 4.1 12.9 11.7v24h-9.6v-23.1c0-3.9-1.7-5.6-5.6-5.6-2.7 0-5 1.1-7.2 3.1V350h-9.6v-28.3c0-2.1-.4-3.1-1.5-4.4-.8-.9-.3-1.8.6-1.8H309zM339.9 349.7v-43.1c0-2.1-.3-3.1-1.5-4.4-.7-.9-.2-1.7.7-1.7h10.5v28.2l12.2-13.5h11L359.6 330l14.8 19.8h-10.6l-10.6-14.4c-1.1-1.5-1.6-1.8-2.8-1.8h-.9v16.2h-9.6z" class="st0"/></g></g></svg>