<svg xmlns="http://www.w3.org/2000/svg" xml:space="preserve" x="0px" y="0px" viewBox="0 0 725 160"><path fill="#F9F9F9" d="M1.558 12.327 1.387 117.45s.299 4.93 2.737 7.599l12.489 16.284h56.458V115.64H27.05V12.326H1.558zM195.683 12.327l-.171 105.124s0 3.619 2.737 7.599l12.489 16.284h56.458v-25.693h-46.022V12.327h-25.491zM182.053 120.345l-25.731-98.453a.743.743 0 0 1-.022-.125c-.065-.796-.929-9.44-7.866-9.44h-32.349a.699.699 0 0 0-.667.539L86.612 124.774a.777.777 0 0 0-.024.192v15.637c0 .404.309.731.691.731h21.569a.7.7 0 0 0 .674-.569l3.802-17.703c.115-.537.45-.991.913-1.242l35.097-18.98s1.274-.939 2.282-.063a.7.7 0 0 1 .207.37l8.886 37.633a.7.7 0 0 0 .67.554h21.467c.382 0 .691-.327.691-.731v-13.042a.645.645 0 0 0-.004-.076c-.042-.408-.431-4.069-1.48-7.14zm-33.554-23.823H120.77c-.447 0-.777-.442-.672-.902l12.626-55.369c.009-.04.017-.084.037-.119 2.237-3.966 4.003-.341 4.12.039a.65.65 0 0 1 .011.042l12.256 51.183c.262 1.163.558 2.379.742 3.34.177.925-.499 1.786-1.391 1.786zM521.829 120.345l-25.731-98.453a.743.743 0 0 1-.022-.125c-.065-.796-.929-9.44-7.866-9.44h-32.349a.699.699 0 0 0-.667.539l-28.807 111.909a.777.777 0 0 0-.024.192v15.637c0 .404.309.731.691.731h21.569a.7.7 0 0 0 .674-.569l3.846-17.907c.087-.407.341-.752.693-.942l35.274-19.075s1.274-.939 2.282-.063a.7.7 0 0 1 .207.37l8.886 37.633a.7.7 0 0 0 .67.554h21.467c.382 0 .691-.327.691-.731v-13.042a.645.645 0 0 0-.004-.076c-.042-.41-.431-4.071-1.48-7.142zm-33.555-23.823h-27.729c-.447 0-.777-.442-.672-.902L472.5 40.25c.009-.04.017-.084.037-.119 2.237-3.966 4.003-.341 4.12.039a.65.65 0 0 1 .011.042l12.256 51.183c.262 1.163.558 2.379.742 3.34.176.926-.499 1.787-1.392 1.787zM282.823 12.327h25.492v129.007h-25.492zM373.555 67.693h29.427l8.326 10.856s5.817 6.514 5.931 11.7v16.707c0 .984-.059 1.963-.189 2.937-.929 6.971-6.137 31.912-33.116 32.224h-23.04s-30.795 1.93-34.331-35.102V45.498s2.965-32.93 30.909-34.016c0 0 21.329-2.654 33.875.844 0 0 27.146 3.257 25.891 37.273h-23.6c-.958 0-1.743-.805-1.771-1.818l-.177-6.263s-.342-4.825-5.018-4.825l-28.628-.241s-5.703 0-5.817 5.066l.114 70.444s.912 4.463 4.22 4.704l30.111.482s4.22-.965 4.562-3.981l.219-18.757c.005-.433-.323-.789-.733-.795l-17.165-.231V67.693zM658.693 95.599a1.298 1.298 0 0 0-1.056-.499h-4.879v6.103h4.879c.408.012.8-.163 1.067-.475.274-.36.415-.805.399-1.259l-.012-2.612a1.865 1.865 0 0 0-.398-1.258zM621.35 95.1h-5.09v6.626h5.09a1.34 1.34 0 0 0 1.067-.499c.29-.352.44-.801.422-1.259v-3.111a1.872 1.872 0 0 0-.422-1.259 1.336 1.336 0 0 0-1.067-.498z"/><path fill="#F9F9F9" d="M645.17.664c-43.021.105-77.842 35.443-77.842 79 .045 43.676 35.054 79.046 78.193 79h.024c43.094-.105 77.945-35.559 77.842-79.19C723.283 35.843 688.265.559 645.17.664zm-28.852 36.56h40.147l-6.111 9.879h-40.17l6.134-9.879zm-12.631 75.854h-5.254a4.257 4.257 0 0 1-.226 0c-2.376-.066-4.25-2.07-4.184-4.476v-2.125h3.249l.469 1.959a1.572 1.572 0 0 0 1.677 1.187h3.589a1.35 1.35 0 0 0 1.102-.499 1.99 1.99 0 0 0 .399-1.259v-2.375c0-1.152-.504-1.734-1.501-1.734h-4.599c-2.455-.026-4.424-2.062-4.398-4.548v-3.123c.019-2.485 2.025-4.484 4.48-4.465h5.231a4.288 4.288 0 0 1 3.132 1.271 4.339 4.339 0 0 1 1.255 3.182v1.912h-3.237l-.493-1.734a1.573 1.573 0 0 0-1.642-1.187h-3.519a1.306 1.306 0 0 0-1.103.499 1.827 1.827 0 0 0-.422 1.271v1.805c0 1.104.493 1.674 1.501 1.674h4.492a4.376 4.376 0 0 1 3.143 1.461 4.436 4.436 0 0 1 1.314 3.194v3.622c-.005 2.485-2 4.495-4.455 4.488zm22.894-12.421a4.37 4.37 0 0 1-1.314 3.194 4.38 4.38 0 0 1-3.202 1.33h-5.864v7.825h-3.73V91.633h9.547a4.325 4.325 0 0 1 3.272 1.377h-.023a4.33 4.33 0 0 1 1.314 3.159v4.488zm17.921 7.79a4.314 4.314 0 0 1-1.325 3.254 4.289 4.289 0 0 1-3.178 1.33h-5.031a4.336 4.336 0 0 1-3.202-1.33 4.387 4.387 0 0 1-1.314-3.254V96.169a4.397 4.397 0 0 1 1.314-3.159 4.34 4.34 0 0 1 3.202-1.33h5.031a4.302 4.302 0 0 1 3.167 1.306l.012.012a4.288 4.288 0 0 1 1.325 3.182v12.267zm.903-21.837h-50.89L606.9 66.851h-9.078l6.181-9.844h37.848l-6.193 9.879h-16.959l-6.263 9.879h27.269l24.97-39.85 31.127 49.682h-11.728l-6.169-9.868h-18.378l6.169-9.903h6.017l-7.037-11.221-19.271 31.005zm14.344 26.408-3.448-8.312h-3.518v8.312h-3.741V91.645h9.383a4.286 4.286 0 0 1 3.178 1.33 4.33 4.33 0 0 1 1.314 3.159v3.717c.012.94-.263 1.86-.786 2.636a4.96 4.96 0 0 1-2.146 1.71l3.706 8.823h-3.942zm19.95-17.918h-5.419v17.895h-3.741V95.112h-5.348l.047-.012v-3.444h14.461V95.1zm16.959 13.418a4.362 4.362 0 0 1-1.314 3.218c-.842.869-2 1.35-3.202 1.33h-5.278a4.286 4.286 0 0 1-3.167-1.271 4.353 4.353 0 0 1-1.255-3.194v-2.125h3.249l.493 1.959c.197.758.907 1.26 1.677 1.187h3.589a1.35 1.35 0 0 0 1.102-.499c.271-.361.412-.805.399-1.259v-2.375c0-1.152-.493-1.734-1.501-1.734h-4.492a4.254 4.254 0 0 1-3.167-1.33 4.485 4.485 0 0 1-1.314-3.218v-3.075c.013-2.496 2.015-4.512 4.48-4.512h5.184a4.299 4.299 0 0 1 3.143 1.271 4.347 4.347 0 0 1 1.278 3.182v1.912h-3.249l-.493-1.734a1.584 1.584 0 0 0-1.642-1.187h-3.518a1.327 1.327 0 0 0-1.102.499 2.011 2.011 0 0 0-.399 1.271v1.805c0 1.104.504 1.674 1.501 1.674h4.504l-.023.083c2.471.044 4.465 2.058 4.515 4.56v3.562zm2.275-15.793h-.786v1.71h-.399v-1.71h-.786v-.356h-.023H698.932v.356zm2.44 1.722v-1.271a1.219 1.219 0 0 1 0-.226.897.897 0 0 1-.106.226l-.645 1.009h-.07l-.669-1.021-.117-.214V94.447h-.352v-2.066h.352l.809 1.259.809-1.259.352-.012v2.078h-.363z"/><path fill="#F9F9F9" d="M639.329 95.112h-3.589a1.327 1.327 0 0 0-1.102.499c-.274.36-.415.805-.399 1.259v10.936c-.009.431.132.852.399 1.187a1.34 1.34 0 0 0 1.102.534h3.589c.42.007.818-.192 1.067-.534.284-.328.439-.751.434-1.187V96.869a1.795 1.795 0 0 0-.434-1.259 1.32 1.32 0 0 0-1.067-.498z"/></svg>