<svg xmlns="http://www.w3.org/2000/svg" xml:space="preserve" id="layer" width="500" height="500" x="0px" y="0px" version="1.1" viewBox="-153 -46 500 500"><style>.st0{fill:#004071}</style><g id="g242" transform="translate(-76.3 -75.7)"><path id="XMLID_185_" d="M173.3 29.7c-137.8 0-250 112.1-250 250 0 137.8 112.2 250 250 250s250-112.2 250-250c0-137.9-112.1-250-250-250" class="st0"/><path id="XMLID_174_" d="M173.1 321.2c-29.8 0-54 23-54 51.3 0 10 3 19.3 8.2 27.2 14.2 5.5 29.7 8.5 45.8 8.5 16.2 0 31.6-3 45.8-8.5 5.2-7.9 8.2-17.2 8.2-27.2.1-28.3-24.1-51.3-54-51.3" class="st0"/><path id="XMLID_218_" d="M220.3 283.1c15.7 26 35.9 48.4 59.6 67.5-10.2 15.5-23.7 28.7-39.5 38.5.6-3.4.9-6.8.9-10.3 0-35.2-30.5-63.7-68.1-63.7-37.6 0-68.1 28.5-68.1 63.7 0 3.5.3 7 .9 10.3-15.8-9.8-29.3-23-39.5-38.5 23.6-19.1 43.8-41.5 59.5-67.5h94.3m-2.9-5c-20-35-31.8-76.4-32.7-124.8-3.8-.3-7.7-.5-11.6-.5-4 0-7.8.2-11.7.6-.9 48.3-12.7 89.7-32.7 124.7h88.7" style="fill:#ec1c24"/><path id="XMLID_217_" d="m177.7 387.7.2.5c-.9 1.8-2.4 4-4.3 5.5l-.4.2-.4-.2c-1.9-1.5-3.4-3.7-4.3-5.5l.2-.5c1.5-.9 2.6-2.4 3-4.1l1.5-1.2 1.5 1.2c.4 1.8 1.5 3.2 3 4.1m4.3-28.6c0-5.2-6.8-21.5-8.9-21.5l-.5.2c-2.5 2-8.4 16.4-8.4 21.3 0 3.9 7.8 14.1 7.8 19.7l1.1 1 1-1c.1-5.6 7.9-15.8 7.9-19.7m-13.3 19.2c-3.7-9.7-10.1-15-16.7-15-5 0-9.1 4-9.1 9.1 0 5 4.1 9 9.1 9 1.5 0 3.1-.7 3.8-1.6 1.3-1.5 1-3 .9-3.2l-.6-.3h-.5c-1.7 0-3-1.4-3-3 0-1.7 1.4-3 3-3 3 0 8.2 2.9 11.1 9l1 .6 1.1-1.1-.1-.5m25.2-15c-6.6 0-13 5.3-16.7 15l-.1.5 1.1 1.1 1-.6c2.8-6.1 8.1-9 11-9 1.7 0 3 1.4 3 3 0 1.7-1.4 3-3 3h-.5l-.6.3c-.1.3-.4 1.8.9 3.2.8.8 2.3 1.6 3.8 1.6 5 0 9.1-4 9.1-9 .1-5.1-4-9.1-9-9.1" style="fill:#c4a361"/><path id="XMLID_220_" d="M173 47.6c-62 0-120.3 24.1-164.1 68-43.8 43.8-68 102.1-68 164.1s24.2 120.3 68 164.1 102.1 68 164.1 68 120.3-24.1 164.1-68 68-102.1 68-164.1-24.1-120.3-68-164.1c-43.8-43.9-102.1-68-164.1-68m0 9.2c123.1 0 222.9 99.8 222.9 222.9 0 123.1-99.8 222.9-222.9 222.9-123.2 0-223-99.8-223-222.9 0-123.1 99.8-222.9 223-222.9m62.8 86.3c-3.6-1.7-7.3-3.2-11-4.6l22-53c3.7 1.4 7.4 2.9 11 4.5l-22 53.1m-63.6-60.5v19h21.3c5.2 0 9.5-4.3 9.5-9.5s-4.3-9.5-9.5-9.5h-21.3m0 46.4c-3.9 0-7.8.2-11.6.5V72.4h33c10.8 0 21.1 8.8 21.1 19.6 0 9-7.1 16.6-15.7 18.9l15 24c-4.8-1.4-9.7-2.5-14.6-3.4l-12.6-19.8h-14.5V129m-138.4 9.8 14 12.8 15.6-17.2c3.5-3.9 3.2-9.9-.6-13.4-3.9-3.5-9.9-3.2-13.4.6l-15.6 17.2m34.5 31.5c-2.8 2.7-5.6 5.4-8.2 8.3l-41.7-38 23.9-26.3c7.3-8 20.3-9 28.3-1.7s8 20.2.7 28.2l-16.1 17.8 13.1 11.7M286 122.1c8.6-2 24.4 13.7 27.4 24.3 2.5-1.9 8.1-6 8.1-6-6.7-19-33.3-38-45.9-26.1-7.5 7.1-3.2 18 3.3 24.8l6.3 6.7c6.5 6.8 12.1 13.6 6.9 17.9-5.5 4.6-21-6.9-30.4-26.6l-8.3 6.3c2 5.2 6.5 12.7 12.5 19.1 6.9 7.2 14.3 11.9 21 13.2 5.2 1 10.5.2 13.9-3 8.6-8 5.5-19.6-8.1-33.9l-5.6-5.9c-6-6.5-3.5-10.2-1.1-10.8m-179.9-3c5.6-2.3 11.3-4.3 17.1-6L107 94.6l-.9 24.5m3.5-37.2 44 48.3c-4.5.6-9 1.3-13.4 2.3l-10-11.5c-8.4 2.2-16.6 5.1-24.5 8.5l-.6 15.2c-4.1 2-8 4.2-11.9 6.6l4.3-65.1c4-1.5 8-3 12.1-4.3m81.6 72.2c62 8.8 109.7 62 109.7 126.4 0 20.6-4.9 40.1-13.6 57.4-56.3-42.3-90.5-101.7-96.1-183.8m49.2 235c.6-3.4.9-6.8.9-10.4 0-35.2-30.5-63.7-68.1-63.7-37.6 0-68.1 28.5-68.1 63.7 0 3.5.3 7 .9 10.4-15.8-9.8-29.3-23-39.5-38.6C90.1 331.4 110.3 309 126 283h94.5c15.7 26 35.9 48.4 59.6 67.5-10.4 15.6-23.9 28.7-39.7 38.6M219 399.7c-14.2 5.5-29.7 8.5-45.8 8.5-16.2 0-31.6-3-45.8-8.5-5.2-7.9-8.2-17.2-8.2-27.2 0-28.3 24.2-51.3 54-51.3s54 23 54 51.3c0 10-3 19.3-8.2 27.2M45.4 280.5c0-64.4 47.7-117.7 109.7-126.4-5.6 82.1-39.8 141.6-96.1 183.8-8.6-17.3-13.6-36.8-13.6-57.4m127.7-127.7c3.9 0 7.8.2 11.6.6.9 48.4 12.7 89.7 32.7 124.7h-88.6c20-35 31.8-76.4 32.7-124.7 3.8-.4 7.7-.6 11.6-.6m0-9.2c-75.5 0-136.9 61.4-136.9 136.9s61.4 136.9 136.9 136.9S310 356 310 280.5s-61.4-136.9-136.9-136.9M61.8 411.8l-7.4 3.5 5.1 4.4 2.3-7.9m-2.7 20.9-2.8-2.1 2.3-7.6-7.3-6.2-7.2 3.5-2.4-2.3 21.4-10.1 2.6 2.2-6.6 22.6m6.6 4.7 12-18.2 2.6 1.7-12 18.2-2.6-1.7m23.9-10.6 3.7 20.3 7.6-14.4 2.7 1.4-9.9 19L91 452l-3.7-20.5-7.8 14.5-2.7-1.5 10-19.1 2.8 1.4m37 15.9-1 2.9-7.1-2.5-6.1 17.5-2.9-1 6.1-17.5-7.1-2.4 1-2.9 17.1 5.9m47.1 16 9.8.2-.1 5.7c-.1 3.9-4.3 6.3-9.7 6.2-5.7-.1-11.6-4.1-11.5-11.4.1-6.1 5.1-11 11.9-10.9 5.1.1 7.8 2.8 9 4l-2.2 2.2c-1-1-2.7-3-6.5-3.1-5.7-.1-9 3.6-9.1 8-.1 4.2 3.2 8 8.6 8.1 3.7.1 6.4-1.6 6.4-3.4v-2.4l-6.7-.1.1-3.1m33.4-13 .4 3.1-14.3 2.1.8 5.6 7.2-1 .4 3.1-7.2 1 .9 6.5 14.8-2.1.4 3.1-17.9 2.6-3-21.2 17.5-2.8m11.2.3 1.8 6.1 9.1-2.8c2.2-.7 3.1-2.2 2.5-4.2-.7-2.3-2.6-2.3-4.3-1.8l-9.1 2.7m8.2-5.7c3.3-1 6.9-.3 8.2 3.9 1.3 4.5-1.2 6.7-2.9 7.4l6.7 7.2-3.2 1.2-6.6-7.3-7.7 2.3 2.6 8.6-3 .8-6.2-20.5 12.1-3.6m47.1-20 1.6 8 5.5-3.9-7.1-4.1m19.3 7.7-2.7 2.1-6.6-4-7.8 5.5 1.5 7.8-2.8 1.7-4.5-23 2.8-2 20.1 11.9m-6.7-22.5 14.6 15.7-2.3 2-14.5-15.6 2.2-2.1m8.5-8.4 20.6 1.4-12.1-10.9 2.1-2.3 15.9 14.3-1.8 2.3-20.8-1.4 12.2 11-2.2 2.2-16-14.4 2.1-2.2m-36.3 28.7 10.1 18.9-2.7 1.5-7.3-13.3-.5 15-12.4-8.4 6.5 13.7-2.8 1.2-9.3-19.3 2.8-1.4 12.6 8.5.4-15.2 2.6-1.2M51 398.2v.1l-2.2 1.3-.1.1v-.1c-1.4-4.7-6.6-10.8-10.2-10.8h-.4l-1.7 1.3c-.4.8-.4 2.2 1.2 4.4l2 2.7c3 4 4.4 7.4 4 9.9l-2.2 3.4-2.9.8-2.4-.4c-2.5-.8-5.3-3-7.6-6.2-2.3-3.1-3.6-6.2-4.1-8.2h.1l2.3-2.1v.1c2.6 7.9 7.8 13.4 10.9 13.4l1.4-.4 1.3-1.9c.4-1.9-1.3-4.4-3.1-6.8l-2.3-3.1c-1.6-2.1-2.4-4.5-2.1-6.4l1.8-3 3-1c4.9 0 11.6 6.4 13.3 12.9m86.5 59.7.7-3.1 7.6 1.7-.7 3.1-7.6-1.7" style="fill:#fff"/></g></svg>