<svg xmlns="http://www.w3.org/2000/svg" xml:space="preserve" width="804.9292" height="347.00562" viewBox="0 0 804.92919 347.00561"><defs><clipPath id="a" clipPathUnits="userSpaceOnUse"><path d="M0 595.276h595.276V0H0Z"/></clipPath></defs><g clip-path="url(#a)" transform="matrix(1.85478 0 0 -1.85478 -143.533 741.416)"><path d="M0 0c9.216-13.001 11.685-45.424 5.102-57.603 0 0-4.279 4.444-7.242 7.406-1.317-23.699-14.153-42.461-24.193-48.057 0 0-1.646 6.418-2.962 10.203-19.421-17.116-47.893-15.14-58.92-8.064 3.785 17.939 1.975 41.803-2.963 48.881-.658-2.304-14.647-22.877-22.383-27.979-5.76 11.85-5.431 38.841-1.81 48.058 0 0-8.723-2.469-14.154-4.116 1.317 8.395 7.57 27.486 18.927 37.361 0 0-5.76 1.152-9.217 1.152 4.509 8.038 10.585 15.113 17.755 20.936-.672-6.089 1.394-12.724 7.282-15.57-9.243 18.485 4.492 28.333 15.116 19.09-1.089 2.724-2.884 5.339-5.148 7.097 12.924 5.816 27.59 8.25 42.381 6.275 2.821-.816 7.143-7.123 7.436-7.591.081 1.996-.035 4.683-.232 6.278 6.89-1.6 13.748-4.188 20.412-7.878-23.129 18.427-51.616 16.884-75.267 5.082-1.933.152-4.013-.345-6.167-1.748-1.394-.908-2.578-2.236-3.514-3.827-12.803-8.407-23.5-19.8-30.096-32.294 0 0 2.107-.422 7.672-1.265-8.6-12.393-13.429-29.311-13.923-41.162 0 0 7.166 1.758 13.091 3.733-2.633-16.952.898-40.269 7.481-48.499 4.28 2.469 17.281 14.319 22.054 22.548 2.962-9.875.165-27.814-1.975-37.36 17.61-11.85 48.551-10.697 62.211 1.152 0 0 2.305-5.925 3.128-10.368C-20.079-102.04-1.152-86.404 1.81-63.198c0 0 3.127-3.128 5.431-5.596C14.647-50.69 18.433-17.445 0 0" style="fill:#fff;fill-opacity:1;fill-rule:nonzero;stroke:none" transform="translate(213.493 320.774)"/><path d="M0 0c15.783 11.666 44.377 12.886 61.762 7.701.457 7.244 3.888 19.749 4.88 21.197-3.432-2.135-11.209-10.827-11.895-12.352-.153 5.871-1.144 19.215-1.144 19.215-.381-.229-15.631-17.385-15.631-17.385L27.068 35.761l-6.557-19.825-18.91 13.572 2.44-18.223c-3.507 3.202-11.895 8.387-14.106 9.226C-6.329 16.698-.839 3.507 0 0" style="fill:#fff;fill-opacity:1;fill-rule:nonzero;stroke:none" transform="translate(119.155 363.97)"/><path d="M0 0c-4.274 3.676-15.645 9.657-15.645 9.657-10.343.516-20.688-7.348-23.765-10.084 1.368-1.282 3.163-2.65 3.163-2.65-5.899-1.966-10.258-6.925-11.797-8.464 2.394-1.025 6.668-1.025 6.668-1.025 4.445-22.398 26.416-9.661 38.982-15.645-4.702 5.129-12.481 12.225-12.481 12.225-8.805-.598-14.168-.156-20.517 4.958 5.899 4.445 11.455 5.814 12.652 5.814 1.197 0 8.805-4.018 11.028-5.643 1.881 1.71 5.3 2.736 7.181 3.249-2.479-2.65-3.077-6.321-2.479-7.606 3.676-3.422 8.378-8.552 10.943-11.287 5.556 2.65 15.131 3.163 20.517 0-4.36 5.3-11.285 10.515-11.285 10.515-.769 2.308-5.129 7.779-5.129 7.779 4.958-2.394 7.438-4.53 7.438-4.53 1.965 2.564 5.043 3.505 5.043 3.505 2.394-2.907 2.565-5.21 2.65-5.982.086-.772-2.137-1.712-2.137-1.712l6.241-7.181C32.4-8.976 14.105 1.368 2.907 7.608 2.565 4.617 0 0 0 0" style="fill:#fff;fill-opacity:1;fill-rule:nonzero;stroke:none" transform="translate(180.363 348.596)"/><path d="M0 0c-2.015-1.511-4.261-3.519-7.201-4.402v-11.447c3.394-2.816 6.534-7.841 8.275-11.623C3.985-17.565 3.637-7.46 0 0" style="fill:#fff;fill-opacity:1;fill-rule:nonzero;stroke:none" transform="translate(206.779 315.427)"/><path d="M0 0c.589-4.385 1.045-9.256 1.197-11.54a47.842 47.842 0 0 1 6.565 7.372c2.53 3.99 3.204 8.194 3.226 8.679.054 1.177-1.108 4.085-3.998 8.623h-7.996S-10.3 3.638-17.85 3.335c2.627-4.703 4.853-8.602 5.711-10.003C-7.392-5.696-.513-1.025 0 0" style="fill:#fff;fill-opacity:1;fill-rule:nonzero;stroke:none" transform="translate(192.587 276.786)"/><path d="M0 0v10.868c-2.555.693-5.516 2.264-9.015 5.164-6.428-.235-19.937-9.049-22.472-11.698.573-1.759 4.259-8.747 8.229-16.014C-15.733-11.727-3.405-4.899 0 0" style="fill:#fff;fill-opacity:1;fill-rule:nonzero;stroke:none" transform="translate(193.384 300.15)"/><path d="M0 0h6.962c7.907-.463 10.471-4.702 10.556-9.162-.045-7.267-5.365-9.669-11.746-9.62H0Zm0-29.568h4.861c15.993-.107 24.524 6.917 24.531 20.759.002 6.207-3.109 12.603-7.53 15.514-4.394 2.939-7.709 4.139-17.88 4.267h-15.401v-60.438H0Z" style="fill:#fff;fill-opacity:1;fill-rule:nonzero;stroke:none" transform="translate(259.656 356.795)"/><path d="M0 0c.487 6.672 6.23 10.238 13.174 8.318V18.51c-6.668 1.297-10.376-.751-13.243-6.037l-1.234 6.017h-9.289v-39.587H0Z" style="fill:#fff;fill-opacity:1;fill-rule:nonzero;stroke:none" transform="translate(303.61 328.426)"/><path d="M0 0c5.163.086 8.732-3.843 9.592-7.678H-9.616C-9.039-3.771-5.24-.088 0 0m1.346-32.649c9.139.641 13.885 5.107 16.378 7.477l-6.321 6.61c-2.209-2.209-4.65-4.596-10.962-4.81-5.616-.016-10.029 4.164-10.036 8.339h29.332c.537 3.74.174 8.619-1.557 12.654C15.162 4.68 7.956 9.167.487 9.215-11.194 9.056-20.317.496-20.655-12.114-20.534-23.491-12.3-32.5 1.346-32.649" style="fill:#fff;fill-opacity:1;fill-rule:nonzero;stroke:none" transform="translate(338.396 338.838)"/><path d="M0 0c.292 3.789 3.145 5.686 6.435 5.965 2.769.235 6.102-1.789 6.724-5.486v-25.07h10.399v23.228c.224 4.405 3.037 7.145 6.637 7.404 2.835.204 6.458-2.025 6.745-7.184v-23.448h10.548V.355c.232 8.091-4.466 15.364-13.544 15.813-6.209-.246-9.104-1.797-12.384-6.424-2.569 3.323-5.318 6.475-11.594 6.424-4.472-.037-7.253-2.007-9.924-6.127l-1.056 5.045h-9.609v-39.677H0Z" style="fill:#fff;fill-opacity:1;fill-rule:nonzero;stroke:none" transform="translate(373.573 331.955)"/><path d="M437.719 346.93h-10.933v-39.566h10.933z" style="fill:#fff;fill-opacity:1;fill-rule:nonzero;stroke:none"/><path d="M0 0h-11.989v-59.022H25.36v10.925H0Z" style="fill:#fff;fill-opacity:1;fill-rule:nonzero;stroke:none" transform="translate(260.043 300.768)"/><path d="M0 0c-2.592-.129-5.221.754-7.45 2.473-2.483 2.093-3.496 5.151-3.487 8.231.366 6.486 4.459 10.197 10.554 10.6 6.446-.373 10.207-4.921 10.129-11.036C9.681 4.895 5.809.401 0 0m9.65 25.576C6.26 29.902 2.379 31.2-2.171 31.233c-4.751.035-9.64-1.77-13.153-4.847-4.49-4.239-7.067-9.623-7.067-15.068 0-5.504 1.569-10.179 4.705-14.026 3.72-4.698 8.798-7.266 13.768-7.48 5.48-.235 9.916 1.454 13.678 5.984l1.193-4.91h9.578V30.68H10.73Z" style="fill:#fff;fill-opacity:1;fill-rule:nonzero;stroke:none" transform="translate(354.998 250.86)"/><path d="M0 0c-.013-3.05-.315-7.041-3.013-9.138-1.322-1.091-3.118-2.028-6.249-1.929-1.981.063-4.264 1.008-6.032 3.161-1.738 2.25-1.481 5.539-1.481 8.173v19.179h-11.244V-2.708c0-6.178 2.515-10.763 5.376-13.416 3.422-3.175 7.268-4.919 13.356-5.194 6.095-.277 10.975 1.509 14.557 4.675 3.677 3.67 5.75 7.892 5.75 13.003v23.086H0Z" style="fill:#fff;fill-opacity:1;fill-rule:nonzero;stroke:none" transform="translate(455.651 262.02)"/><path d="M0 0c1.88 0 3.479.658 4.794 1.974 1.348 1.347 2.02 2.961 2.02 4.84 0 1.88-.672 3.478-2.02 4.793C3.479 12.955 1.88 13.628 0 13.628c-1.879 0-3.493-.673-4.84-2.021-1.315-1.315-1.973-2.913-1.973-4.793 0-1.879.658-3.493 1.973-4.84C-3.493.658-1.879 0 0 0" style="fill:#fff;fill-opacity:1;fill-rule:nonzero;stroke:none" transform="translate(432.46 352.364)"/><path d="M0 0c.488 6.672 6.23 10.238 13.174 8.318V18.51c-6.668 1.297-10.376-.751-13.242-6.037l-1.234 6.017h-9.29v-39.587H0Z" style="fill:#fff;fill-opacity:1;fill-rule:nonzero;stroke:none" transform="translate(498.13 328.426)"/><path d="M0 0c5.163.086 8.732-3.843 9.592-7.678H-9.616C-9.039-3.771-5.24-.088 0 0m1.346-32.649c9.139.641 13.885 5.107 16.377 7.477l-6.321 6.61c-2.208-2.209-4.65-4.596-10.961-4.81-5.616-.016-10.03 4.164-10.036 8.339h29.332c.536 3.74.174 8.619-1.558 12.654C15.162 4.68 7.956 9.167.486 9.215c-11.68-.159-20.803-8.719-21.141-21.329.121-11.377 8.355-20.386 22.001-20.535" style="fill:#fff;fill-opacity:1;fill-rule:nonzero;stroke:none" transform="translate(462.807 338.838)"/><path d="M0 0c-2.591-.129-5.221.754-7.45 2.473-2.483 2.093-3.496 5.151-3.486 8.231.366 6.486 4.458 10.197 10.554 10.6 6.446-.373 10.207-4.921 10.128-11.036C9.682 4.895 5.81.401 0 0m20.531 30.68H10.73l-1.08-5.104C6.26 29.902 2.38 31.2-2.17 31.233c-4.752.035-9.641-1.77-13.154-4.847-4.489-4.239-7.066-9.623-7.066-15.068 0-5.504 1.569-10.179 4.704-14.026 4.374-5.359 11.01-8.776 20.586-6.885 2.157.62 4.156 1.805 6.259 3.973C10.943-16.676 2.583-19.591-5.14-18.323c-2.43.398-5.482 1.697-9.407 5.174l-6.092-8.543c5.235-4.509 11.855-7.136 18.276-7.192 10.392-.092 23.311 5.305 22.894 22.84z" style="fill:#fff;fill-opacity:1;fill-rule:nonzero;stroke:none" transform="translate(401.973 250.86)"/><path d="M0 0c.577 3.906 4.376 7.59 9.616 7.678 5.163.087 8.733-3.843 9.592-7.678Zm27.795 5.3c-3.017 7.058-10.223 11.546-17.692 11.594-11.682-.16-20.804-8.72-21.142-21.33.121-11.377 8.355-20.386 22.001-20.535 9.14.642 13.886 5.107 16.377 7.477l-6.319 6.61c-2.209-2.208-4.652-4.596-10.962-4.81C4.441-15.71.027-11.53.021-7.354h29.333c.536 3.74.173 8.619-1.559 12.654" style="fill:#fff;fill-opacity:1;fill-rule:nonzero;stroke:none" transform="translate(481.777 265.598)"/><path d="M0 0c.578 3.906 4.375 7.59 9.617 7.678 5.163.087 8.732-3.843 9.591-7.678Zm10.103 16.894c-11.681-.16-20.804-8.72-21.142-21.33.121-11.377 8.355-20.386 22-20.535 9.141.642 13.887 5.107 16.378 7.477l-6.32 6.61c-2.208-2.208-4.65-4.596-10.962-4.81C4.441-15.71.028-11.53.021-7.354h29.333c.536 3.74.173 8.619-1.559 12.654-3.017 7.058-10.223 11.546-17.692 11.594" style="fill:#fff;fill-opacity:1;fill-rule:nonzero;stroke:none" transform="translate(298.973 265.598)"/></g></svg>